<?xml version="1.0" standalone="no"?>
<!DOCTYPE svg PUBLIC "-//W3C//DTD SVG 20010904//EN"
 "http://www.w3.org/TR/2001/REC-SVG-20010904/DTD/svg10.dtd">
<svg version="1.0" xmlns="http://www.w3.org/2000/svg"
 width="600.000000pt" height="600.000000pt" viewBox="0 0 600.000000 600.000000"
 preserveAspectRatio="xMidYMid meet">
<metadata>
Created by potrace 1.11, written by Peter Selinger 2001-2013
</metadata>
<g transform="translate(0.000000,600.000000) scale(0.100000,-0.100000)"
fill="#000000" stroke="none">
<path d="M2848 5995 c-2 -1 -41 -5 -88 -8 -144 -10 -292 -33 -460 -71 -107
-25 -299 -87 -425 -138 -576 -234 -1064 -640 -1407 -1173 -72 -112 -212 -389
-261 -515 -32 -84 -51 -142 -102 -310 -17 -55 -63 -281 -71 -343 -2 -25 -7
-56 -9 -68 -24 -125 -24 -667 -1 -741 3 -7 7 -36 10 -65 3 -28 8 -57 10 -65 3
-7 8 -31 11 -52 11 -75 55 -252 89 -356 204 -630 600 -1168 1136 -1544 58 -40
116 -80 130 -87 14 -8 27 -16 30 -19 24 -24 326 -174 443 -221 147 -59 345
-121 462 -145 267 -54 409 -69 660 -68 143 0 272 7 360 19 17 2 48 6 70 9 22
3 51 8 65 11 14 3 52 10 85 16 214 38 504 135 725 243 379 186 729 459 990
776 34 41 70 84 79 95 9 11 42 56 72 100 307 437 493 949 536 1475 18 220 1
635 -32 750 -2 8 -6 32 -9 52 -3 21 -11 59 -17 85 -6 27 -12 55 -14 63 -9 45
-38 146 -64 226 -200 614 -600 1154 -1131 1528 -111 78 -128 89 -255 159 -251
140 -524 248 -765 302 -115 26 -222 46 -295 55 -49 6 -108 13 -130 16 -42 6
-422 14 -427 9z"/>
</g>
</svg>
